<svg 
  width="100%" 
  height="100%" 
  id="svg" 
  viewBox="0 0 1440 690" 
  xmlns="http://www.w3.org/2000/svg" 
  class="transition duration-300 ease-in-out delay-150">
  <defs>
    <linearGradient id="gradient" x1="0%" y1="50%" x2="100%" y2="50%">
      <stop offset="5%" stop-color="#9900ef">
      </stop>
      <stop offset="95%" stop-color="#8ED1FC">
      </stop>
    </linearGradient>
  </defs>
  <path d="M 0,700 L 0,105 C 93.35641025641027,130.80128205128204 186.71282051282054,156.60256410256412 276,152 C 365.28717948717946,147.39743589743588 450.50512820512824,112.39102564102564 523,135 C 595.4948717948718,157.60897435897436 655.2666666666668,237.83333333333331 735,285 C 814.7333333333332,332.1666666666667 914.428205128205,346.27564102564105 996,350 C 1077.571794871795,353.72435897435895 1141.020512820513,347.06410256410254 1212,367 C 1282.979487179487,386.93589743589746 1361.4897435897435,433.46794871794873 1440,480 L 1440,700 L 0,700 Z" stroke="none" stroke-width="0" fill="url(#gradient)" fill-opacity="0.265" class="transition-all duration-300 ease-in-out delay-150 path-0">
  </path>
  <defs>
    <linearGradient id="gradient" x1="0%" y1="50%" x2="100%" y2="50%">
      <stop offset="5%" stop-color="#9900ef">
      </stop>
      <stop offset="95%" stop-color="#8ED1FC">
      </stop>
    </linearGradient>
  </defs>
  <path d="M 0,700 L 0,245 C 67.06923076923076,243.02179487179487 134.1384615384615,241.04358974358973 221,257 C 307.8615384615385,272.95641025641027 414.5153846153846,306.8474358974359 504,334 C 593.4846153846154,361.1525641025641 665.8000000000001,381.56666666666666 733,398 C 800.1999999999999,414.43333333333334 862.2846153846152,426.8858974358974 933,451 C 1003.7153846153848,475.1141025641026 1083.0615384615385,510.8897435897436 1169,541 C 1254.9384615384615,571.1102564102564 1347.4692307692308,595.5551282051282 1440,620 L 1440,700 L 0,700 Z" stroke="none" stroke-width="0" fill="url(#gradient)" fill-opacity="0.4" class="transition-all duration-300 ease-in-out delay-150 path-1">
  </path>
  <defs>
    <linearGradient id="gradient" x1="0%" y1="50%" x2="100%" y2="50%">
      <stop offset="5%" stop-color="#9900ef">
      </stop>
      <stop offset="95%" stop-color="#8ED1FC">
      </stop>
    </linearGradient>
  </defs>
  <path d="M 0,700 L 0,385 C 76.56410256410254,384.82435897435903 153.12820512820508,384.648717948718 237,400 C 320.8717948717949,415.351282051282 412.0512820512821,446.22948717948714 485,465 C 557.9487179487179,483.77051282051286 612.6666666666667,490.4333333333333 679,516 C 745.3333333333333,541.5666666666667 823.2820512820513,586.0371794871796 918,610 C 1012.7179487179487,633.9628205128204 1124.2051282051282,637.4179487179487 1214,659 C 1303.7948717948718,680.5820512820513 1371.897435897436,720.2910256410257 1440,760 L 1440,700 L 0,700 Z" stroke="none" stroke-width="0" fill="url(#gradient)" fill-opacity="0.53" class="transition-all duration-300 ease-in-out delay-150 path-2">
  </path>
  <defs>
    <linearGradient id="gradient" x1="0%" y1="50%" x2="100%" y2="50%">
      <stop offset="5%" stop-color="#9900ef">
      </stop>
      <stop offset="95%" stop-color="#8ED1FC">
      </stop>
    </linearGradient>
  </defs>
  <path d="M 0,700 L 0,525 C 50,494.32948717948716 100,463.6589743589744 199,481 C 298,498.3410256410256 446,563.6935897435898 523,596 C 600,628.3064102564102 605.9999999999999,627.5666666666667 679,645 C 752.0000000000001,662.4333333333333 892,698.0397435897436 980,731 C 1068,763.9602564102564 1104,794.2743589743591 1172,822 C 1240,849.7256410256409 1340,874.8628205128205 1440,900 L 1440,700 L 0,700 Z" stroke="none" stroke-width="0" fill="url(#gradient)" fill-opacity="1" class="transition-all duration-300 ease-in-out delay-150 path-3">
  </path>
</svg>